<?xml version="1.0" encoding="UTF-8"?>
<svg xmlns="http://www.w3.org/2000/svg" viewBox="0 0 640 320" width="100%" height="100%">
  <!-- Caminho base do infinito (cinza muito claro) -->
  <path class="infinity-base" fill="none" stroke="#f5f5f5" stroke-width="25" d="M120 160c0-40 30-80 80-80s80 40 80 80s-30 80-80 80s-80-40-80-80zm320 0c0-40-30-80-80-80s-80 40-80 80s30 80 80 80s80-40 80-80z"/>
  
  <!-- Caminho animado (roxo) com traço mais fino e arredondado -->
  <path class="infinity-animated" fill="none" stroke="#6a4c93" stroke-width="25" stroke-linecap="round" d="M120 160c0-40 30-80 80-80s80 40 80 80s-30 80-80 80s-80-40-80-80zm320 0c0-40-30-80-80-80s-80 40-80 80s30 80 80 80s80-40 80-80z"/>
</svg>
