<?xml version="1.0" encoding="UTF-8"?>
<svg xmlns="http://www.w3.org/2000/svg" viewBox="0 0 640 512">
  <path fill="#6a4c93" d="M0 241.1C0 161 65 96 145.1 96c44.4 0 85.4 22.5 109.7 59.4L320 256l65.2-100.6c24.3-37 65.3-59.4 109.7-59.4 80.1 0 145.1 65 145.1 145.1s-65 145.1-145.1 145.1c-44.4 0-85.4-22.5-109.7-59.4L320 226.4 254.8 327c-24.3 37-65.3 59.4-109.7 59.4C65 386.2 0 321.2 0 241.1zM145.1 144c-53.4 0-97.1 43.6-97.1 97.1s43.6 97.1 97.1 97.1c31.1 0 59.7-14.8 77.8-39.6l38.5-59.4-38.5-59.4c-18.1-24.8-46.7-39.6-77.8-39.6zm349.8 0c-31.1 0-59.7 14.8-77.8 39.6l-38.5 59.4 38.5 59.4c18.1 24.8 46.7 39.6 77.8 39.6 53.4 0 97.1-43.6 97.1-97.1s-43.6-97.1-97.1-97.1z"/>
</svg>
